Coordinates
version=1
nRows=26
nColumns=27
inDegrees=yes

Units are S.I. units (second, meters, Newtons, ...)
If the header above contains a line with 'inDegrees', this indicates whether rotational values are in degrees (yes) or radians (no).

endheader
time	pelvis_rotation	pelvis_tilt	pelvis_list	pelvis_tx	pelvis_ty	pelvis_tz	hip_flexion_r	hip_adduction_r	hip_rotation_r	knee_angle_r	knee_rotation_r	knee_adduction_r	knee_angle_r_beta	ankle_angle_r	subtalar_angle_r	mtp_angle_r	hip_flexion_l	hip_adduction_l	hip_rotation_l	knee_angle_l	knee_rotation_l	knee_adduction_l	knee_angle_l_beta	ankle_angle_l	subtalar_angle_l	mtp_angle_l
      3.94500000	      7.63809128	    -29.33264535	      6.10645159	      0.02871270	      0.63157712	     -1.16416002	     94.28800429	    -46.03502989	      4.29000451	     81.86650435	      0.00000000	      9.91599436	      1.42884005	     12.54383798	      0.00000000	      0.00000000	     90.96492725	    -26.03689705	      2.38203249	     75.51553571	      0.00000000	     -9.92799603	      1.31799473	     10.02187479	      0.00000000	      0.00000000
      3.95000000	      7.64527392	    -29.32519842	      6.06161982	      0.02891965	      0.62993447	     -1.16390096	     94.53417410	    -46.06802019	      4.45933481	     82.19131544	      0.00000000	      9.91649399	      1.43450907	     12.64153553	      0.00000000	      0.00000000	     91.23352782	    -26.10145466	      2.56731655	     75.82299805	      0.00000000	     -9.92847252	      1.32336096	     10.11196532	      0.00000000	      0.00000000
      3.95500000	      7.76100465	    -29.26323585	      6.02982282	      0.02920321	      0.62840038	     -1.16371517	     94.65787617	    -46.23038177	      4.55438092	     82.48054971	      0.00000000	      9.91706867	      1.43955716	     12.75892852	      0.00000000	      0.00000000	     91.45313049	    -26.04032241	      2.79064068	     76.09816158	      0.00000000	     -9.92891642	      1.32816347	     10.20035090	      0.00000000	      0.00000000
      3.96000000	      7.64826948	    -29.29870198	      6.00309926	      0.02929917	      0.62677696	     -1.16343504	     95.02484509	    -46.11308419	      4.84917651	     82.80127229	      0.00000000	      9.91736934	      1.44515483	     12.85584264	      0.00000000	      0.00000000	     91.71261477	    -26.22859457	      2.88166997	     76.38755148	      0.00000000	     -9.92952294	      1.33321428	     10.24168350	      0.00000000	      0.00000000
      3.96500000	      7.70105729	    -29.24402945	      5.85667376	      0.02963409	      0.62529452	     -1.16318954	     95.01858635	    -46.21528313	      4.78494034	     83.07475275	      0.00000000	      9.91801240	      1.44992796	     12.97855434	      0.00000000	      0.00000000	     91.98633924	    -26.23284920	      3.19978137	     76.67750465	      0.00000000	     -9.93020803	      1.33827492	     10.35104847	      0.00000000	      0.00000000
      3.97000000	      7.64803976	    -29.23995544	      5.91360613	      0.02975187	      0.62366415	     -1.16298111	     95.42543053	    -46.16200292	      5.17594366	     83.39792982	      0.00000000	      9.91832720	      1.45556846	     13.06958929	      0.00000000	      0.00000000	     92.16769325	    -26.34123362	      3.23752998	     76.95164366	      0.00000000	     -9.93052336	      1.34305955	     10.38538383	      0.00000000	      0.00000000
      3.97500000	      7.63956348	    -29.19968330	      5.85021644	      0.02999135	      0.62213095	     -1.16275614	     95.59114178	    -46.18586713	      5.30562170	     83.68827317	      0.00000000	      9.91873947	      1.46063591	     13.16367865	      0.00000000	      0.00000000	     92.38937181	    -26.39930814	      3.43315121	     77.23222622	      0.00000000	     -9.93102769	      1.34795664	     10.46776909	      0.00000000	      0.00000000
      3.98000000	      7.59591954	    -29.19483866	      5.81453720	      0.03018302	      0.62052358	     -1.16253968	     95.85791359	    -46.15768509	      5.52560390	     83.99328339	      0.00000000	      9.91913914	      1.46595934	     13.27724174	      0.00000000	      0.00000000	     92.62958472	    -26.49513337	      3.59055436	     77.52209281	      0.00000000	     -9.93150354	      1.35301576	     10.54121383	      0.00000000	      0.00000000
      3.98500000	      7.59822428	    -29.19382680	      5.76936278	      0.03033092	      0.61896047	     -1.16236793	     96.10479831	    -46.18633227	      5.69717278	     84.27984153	      0.00000000	      9.91981132	      1.47096073	     13.27889438	      0.00000000	      0.00000000	     92.89531798	    -26.52840689	      3.79115155	     77.80787408	      0.00000000	     -9.93199771	      1.35800359	     10.60477829	      0.00000000	      0.00000000
      3.99000000	      7.66668446	    -29.12665781	      5.69645182	      0.03069829	      0.61741738	     -1.16216332	     96.18571433	    -46.31896853	      5.73993696	     84.57546478	      0.00000000	      9.91998398	      1.47612033	     13.46173862	      0.00000000	      0.00000000	     93.10672137	    -26.49579905	      4.05143659	     78.08190625	      0.00000000	     -9.93232581	      1.36278635	     10.73860843	      0.00000000	      0.00000000
      3.99500000	      7.56873247	    -29.10021320	      5.65693471	      0.03087169	      0.61583918	     -1.16192614	     96.43963943	    -46.23343088	      5.97691906	     84.87185116	      0.00000000	      9.92050833	      1.48129325	     13.58384288	      0.00000000	      0.00000000	     93.30562069	    -26.64339013	      4.17948742	     78.35870746	      0.00000000	     -9.93273566	      1.36761744	     10.76781340	      0.00000000	      0.00000000
      4.00000000	      7.52017118	    -29.14392286	      5.59736961	      0.03102316	      0.61423206	     -1.16170582	     96.72161111	    -46.19865438	      6.15246381	     85.16663004	      0.00000000	      9.92080748	      1.48643811	     13.69553496	      0.00000000	      0.00000000	     93.61570739	    -26.73380398	      4.38031595	     78.65019033	      0.00000000	     -9.93322200	      1.37270478	     10.83063945	      0.00000000	      0.00000000
      4.00500000	      7.53241459	    -29.07886996	      5.55556999	      0.03130369	      0.61266326	     -1.16154100	     96.88841623	    -46.26586175	      6.29887751	     85.46180046	      0.00000000	      9.92130653	      1.49158980	     13.80616001	      0.00000000	      0.00000000	     93.80041399	    -26.75484417	      4.57104032	     78.92992551	      0.00000000	     -9.93356007	      1.37758708	     10.95143449	      0.00000000	      0.00000000
      4.01000000	      7.43723490	    -29.12097544	      5.48821579	      0.03141582	      0.61103330	     -1.16130154	     97.19403125	    -46.18691889	      6.49090859	     85.76021665	      0.00000000	      9.92169031	      1.49679815	     13.89294786	      0.00000000	      0.00000000	     94.10219207	    -26.89378942	      4.75812997	     79.22136872	      0.00000000	     -9.93394224	      1.38267372	     11.02293286	      0.00000000	      0.00000000
      4.01500000	      7.44241994	    -29.07429790	      5.45206375	      0.03164871	      0.60945734	     -1.16112900	     97.39258245	    -46.24408361	      6.64531528	     86.05134986	      0.00000000	      9.92212391	      1.50187938	     13.97641571	      0.00000000	      0.00000000	     94.30433672	    -26.91735498	      4.94515994	     79.49880069	      0.00000000	     -9.93433663	      1.38751582	     11.12648875	      0.00000000	      0.00000000
      4.02000000	      7.33029414	    -29.09257643	      5.38516190	      0.03179781	      0.60785874	     -1.16088971	     97.66652512	    -46.15575076	      6.83528217	     86.34712484	      0.00000000	      9.92250118	      1.50704163	     14.09420495	      0.00000000	      0.00000000	     94.56920606	    -27.07415418	      5.11774269	     79.78238704	      0.00000000	     -9.93477901	      1.39246534	     11.18277928	      0.00000000	      0.00000000
      4.02500000	      7.33125324	    -29.07962495	      5.32818963	      0.03197920	      0.60628142	     -1.16070425	     97.87821260	    -46.20456951	      6.96500763	     86.63079705	      0.00000000	      9.92301322	      1.51199264	     14.17994643	      0.00000000	      0.00000000	     94.82626760	    -27.09694953	      5.34128273	     80.05754760	      0.00000000	     -9.93513079	      1.39726780	     11.26626274	      0.00000000	      0.00000000
      4.03000000	      7.27427746	    -29.07752526	      5.24136381	      0.03220161	      0.60471129	     -1.16046994	     98.07970682	    -46.20629410	      7.06760571	     86.91786679	      0.00000000	      9.92353401	      1.51700295	     14.28425970	      0.00000000	      0.00000000	     95.09621879	    -27.20047675	      5.55202352	     80.34214725	      0.00000000	     -9.93553832	      1.40223500	     11.33372582	      0.00000000	      0.00000000
      4.03500000	      7.17393604	    -29.15823012	      5.22502612	      0.03222037	      0.60304629	     -1.16024995	     98.51582981	    -46.13304809	      7.33284981	     87.22492947	      0.00000000	      9.92374429	      1.52236221	     14.33859320	      0.00000000	      0.00000000	     95.40919683	    -27.33869980	      5.68905098	     80.62191755	      0.00000000	     -9.93577048	      1.40711791	     11.42059336	      0.00000000	      0.00000000
      4.04000000	      7.18480857	    -29.08845220	      5.13996850	      0.03258043	      0.60154265	     -1.15999182	     98.59634425	    -46.21023840	      7.38564739	     87.50635322	      0.00000000	      9.92438294	      1.52727398	     14.46732722	      0.00000000	      0.00000000	     95.61454976	    -27.37715256	      5.92225760	     80.89054705	      0.00000000	     -9.93615049	      1.41180638	     11.44841033	      0.00000000	      0.00000000
      4.04500000	      7.06894008	    -29.13793713	      5.06658280	      0.03261599	      0.60001782	     -1.15972926	     98.88767255	    -46.11311190	      7.55005783	     87.77508810	      0.00000000	      9.92467716	      1.53196429	     14.54223647	      0.00000000	      0.00000000	     95.90398129	    -27.51944272	      6.11364581	     81.14965357	      0.00000000	     -9.93656503	      1.41632864	     11.54363644	      0.00000000	      0.00000000
      4.05000000	      7.01810897	    -29.16470516	      4.99762362	      0.03273727	      0.59852850	     -1.15948848	     99.13471254	    -46.10327261	      7.67154039	     88.04201263	      0.00000000	      9.92516759	      1.53662300	     14.59311379	      0.00000000	      0.00000000	     96.18593854	    -27.60239465	      6.31821321	     81.40423583	      0.00000000	     -9.93689465	      1.42077194	     11.58612243	      0.00000000	      0.00000000
      4.05500000	      6.99267967	    -29.16066609	      4.93888728	      0.03292489	      0.59702718	     -1.15921429	     99.34239369	    -46.13233074	      7.78190432	     88.31844294	      0.00000000	      9.92555377	      1.54144762	     14.70666338	      0.00000000	      0.00000000	     96.43389657	    -27.67057015	      6.51337047	     81.65468891	      0.00000000	     -9.93720396	      1.42514317	     11.65591867	      0.00000000	      0.00000000
      4.06000000	      6.91422688	    -29.20563977	      4.85022455	      0.03302269	      0.59552493	     -1.15892196	     99.58814574	    -46.08788373	      7.89231898	     88.58810158	      0.00000000	      9.92596576	      1.54615405	     14.79520992	      0.00000000	      0.00000000	     96.73976315	    -27.78319064	      6.73612866	     81.91146338	      0.00000000	     -9.93752766	      1.42962473	     11.70387857	      0.00000000	      0.00000000
      4.06500000	      6.88968206	    -29.24365483	      4.78482621	      0.03312117	      0.59406557	     -1.15863814	     99.83317872	    -46.10256017	      7.99831380	     88.85117204	      0.00000000	      9.92640296	      1.55074550	     14.88570628	      0.00000000	      0.00000000	     97.03613073	    -27.84114221	      6.94929569	     82.15420597	      0.00000000	     -9.93781110	      1.43386139	     11.76492836	      0.00000000	      0.00000000
      4.07000000	      6.81588167	    -29.28289746	      4.72547290	      0.03320097	      0.59264509	     -1.15834058	    100.10005727	    -46.05775509	      8.13550256	     89.11151447	      0.00000000	      9.92673978	      1.55528933	     14.94385017	      0.00000000	      0.00000000	     97.30691734	    -27.95872516	      7.11924767	     82.38351396	      0.00000000	     -9.93817498	      1.43786357	     11.78167736	      0.00000000	      0.00000000
